<svg width="20" height="20" viewBox="0 0 20 20" fill="none" xmlns="http://www.w3.org/2000/svg">
  <path id="Stroke 1" d="M6.18799 18.0859C6.18799 18.5079 5.84497 18.8499 5.42297 18.8499C5.00098 18.8499 4.659 18.5079 4.659 18.0859C4.659 17.6638 5.00098 17.3209 5.42297 17.3209C5.84497 17.3209 6.18799 17.6638 6.18799 18.0859Z" stroke="#FFFFFF" stroke-opacity="1.000000" stroke-width="1.500000" stroke-linejoin="round"/>
  <path id="Stroke 3" d="M17.4404 18.0859C17.4404 18.5079 17.0974 18.8499 16.6754 18.8499C16.2534 18.8499 15.9103 18.5079 15.9103 18.0859C15.9103 17.6638 16.2534 17.3209 16.6754 17.3209C17.0974 17.3209 17.4404 17.6638 17.4404 18.0859Z" stroke="#FFFFFF" stroke-opacity="1.000000" stroke-width="1.500000" stroke-linejoin="round"/>
  <path id="Stroke 5" d="M0.750549 0.750549L2.83057 1.11053L3.79358 12.5836C3.87152 13.5186 4.65253 14.2365 5.59058 14.2365L16.5026 14.2365C17.3986 14.2365 18.1586 13.5786 18.2875 12.6906L19.2366 6.13254C19.3536 5.32355 18.7266 4.59955 17.9095 4.59955L3.16455 4.59955" stroke="#FFFFFF" stroke-opacity="1.000000" stroke-width="1.500000" stroke-linejoin="round" stroke-linecap="round"/>
  <path id="Stroke 7" d="M12.126 8.29556L14.899 8.29556" stroke="#FFFFFF" stroke-opacity="1.000000" stroke-width="1.500000" stroke-linejoin="round" stroke-linecap="round"/>
</svg>
