<svg width="13.737732" height="13.666687" viewBox="0 0 13.7377 13.6667" fill="none" xmlns="http://www.w3.org/2000/svg">
  <path id="Stroke 1" d="M3.02859 0.500885C3.27646 0.522095 3.49554 0.671356 3.67358 0.845245L3.67426 0.845245C4.08234 1.24509 5.25317 2.754 5.31891 3.07166C5.48117 3.85077 4.55203 4.2999 4.83618 5.08514C5.56058 6.85767 6.80878 8.10574 8.58212 8.82938C9.36679 9.1142 9.81595 8.18585 10.5951 8.34741C10.9128 8.41382 12.4226 9.58386 12.8217 9.99258C12.995 10.1699 13.1456 10.3896 13.1661 10.6375C13.197 11.5104 11.8481 12.6886 11.5852 12.8393C10.9649 13.2836 10.1555 13.2754 9.16891 12.8167C6.41577 11.6713 2.01593 7.35471 0.849213 4.49774C0.402802 3.51666 0.372681 2.70197 0.82663 2.08237C1.03751 1.73251 2.20013 0.462555 3.02859 0.500885Z" stroke="#FFFFFF" stroke-opacity="1.000000" stroke-width="1.000000" stroke-linejoin="round"/>
  <path id="Path" d="M8.54358 0.666718C11.0116 0.940704 12.9602 2.88739 13.2376 5.35471" stroke="#FFFFFF" stroke-opacity="1.000000" stroke-width="1.000000" stroke-linejoin="round" stroke-linecap="round"/>
  <path id="Path" d="M8.54358 3.02872C9.72357 3.25873 10.6456 4.18073 10.8756 5.36072" stroke="#FFFFFF" stroke-opacity="1.000000" stroke-width="1.000000" stroke-linejoin="round" stroke-linecap="round"/>
</svg>
