<svg width="96.929077" height="18.200684" viewBox="0 0 96.9291 18.2007" fill="none" xmlns="http://www.w3.org/2000/svg">
  <path id="LOGOS" d="M3.44849 14.5508L10.1257 14.5508L10.1257 17.8528L0 17.8528L0 0.354004L3.44849 0.354004L3.44849 14.5508ZM29.4778 15.564Q26.8289 18.2007 23.0264 18.2007Q19.2239 18.2007 16.5872 15.564Q13.9504 12.9272 13.9504 9.10645Q13.9504 5.27954 16.5872 2.64282Q19.2239 0 23.0264 0Q26.8289 0 29.4778 2.64282Q32.1267 5.27954 32.1267 9.10645Q32.1267 12.9272 29.4778 15.564ZM18.998 13.2141Q20.6277 14.8254 23.0264 14.8254Q25.425 14.8254 27.0486 13.2141Q28.6782 11.6028 28.6782 9.10645Q28.6782 6.604 27.0486 4.98047Q25.425 3.35083 23.0264 3.35083Q20.6277 3.35083 18.998 4.98047Q17.3745 6.604 17.3745 9.10645Q17.3745 11.6028 18.998 13.2141ZM55.4753 8.45337L55.4753 9.80225Q55.4753 13.5498 53.0766 15.8752Q50.6779 18.2007 46.8754 18.2007Q42.8288 18.2007 40.1616 15.564Q37.5004 12.9272 37.5004 9.12476Q37.5004 5.30396 40.1372 2.65503Q42.7739 0 46.674 0Q49.1276 0 51.1479 1.11694Q53.1743 2.22778 54.3034 4.07715L51.3493 5.78003Q50.7268 4.70581 49.4633 4.02832Q48.1999 3.35083 46.6496 3.35083Q44.1533 3.35083 42.5358 4.99268Q40.9245 6.62842 40.9245 9.12476Q40.9245 11.6028 42.5603 13.2141Q44.2021 14.8254 46.8999 14.8254Q48.9018 14.8254 50.2141 13.9404Q51.5263 13.0554 52.0024 11.5051L46.6984 11.5051L46.6984 8.45337L55.4753 8.45337ZM76.4028 15.564Q73.7539 18.2007 69.9514 18.2007Q66.1489 18.2007 63.5122 15.564Q60.8754 12.9272 60.8754 9.10645Q60.8754 5.27954 63.5122 2.64282Q66.1489 0 69.9514 0Q73.7539 0 76.4028 2.64282Q79.0517 5.27954 79.0517 9.10645Q79.0517 12.9272 76.4028 15.564ZM65.923 13.2141Q67.5527 14.8254 69.9514 14.8254Q72.3501 14.8254 73.9736 13.2141Q75.6032 11.6028 75.6032 9.10645Q75.6032 6.604 73.9736 4.98047Q72.3501 3.35083 69.9514 3.35083Q67.5527 3.35083 65.923 4.98047Q64.2995 6.604 64.2995 9.10645Q64.2995 11.6028 65.923 13.2141ZM90.5753 18.2007Q87.9753 18.2007 86.1991 17.041Q84.4291 15.8752 83.7028 13.8794L86.6508 12.1521Q87.6762 14.8254 90.6791 14.8254Q92.1256 14.8254 92.797 14.3005Q93.4745 13.7756 93.4745 12.9761Q93.4745 12.0544 92.6505 11.5417Q91.8266 11.0291 89.7025 10.4248Q88.5246 10.0769 87.7128 9.729Q86.901 9.375 86.0893 8.78906Q85.2775 8.20312 84.8503 7.30591Q84.4291 6.40259 84.4291 5.2002Q84.4291 2.82593 86.1137 1.41602Q87.8044 0 90.1786 0Q92.3026 0 93.914 1.0376Q95.5253 2.0752 96.4286 3.93066L93.5294 5.60303Q92.4735 3.35083 90.1786 3.35083Q89.1044 3.35083 88.4879 3.83911Q87.8776 4.32739 87.8776 5.10254Q87.8776 5.92651 88.5612 6.43921Q89.2509 6.9519 91.204 7.55005Q92.0036 7.80029 92.4125 7.94067Q92.8275 8.07495 93.5356 8.36792Q94.2497 8.65479 94.6342 8.90503Q95.0248 9.15527 95.5253 9.58252Q96.0258 10.0037 96.2882 10.4553Q96.5507 10.9009 96.7399 11.5417Q96.9291 12.1765 96.9291 12.9272Q96.9291 15.3503 95.1652 16.7786Q93.4013 18.2007 90.5753 18.2007Z" fill="#FFFFFF" fill-opacity="1.000000" fill-rule="evenodd"/>
</svg>
