<svg width="96.929" height="18.201" fill="none" xmlns="http://www.w3.org/2000/svg"><path d="M3.448 14.55h6.678v3.303H0V.354h3.448v14.197Zm26.03 1.014q-2.65 2.637-6.452 2.637t-6.439-2.637q-2.637-2.637-2.637-6.458 0-3.826 2.637-6.463Q19.224 0 23.027 0q3.802 0 6.45 2.643 2.65 2.637 2.65 6.463 0 3.821-2.65 6.458Zm-10.48-2.35q1.63 1.611 4.028 1.611 2.399 0 4.023-1.61 1.63-1.612 1.63-4.109 0-2.502-1.63-4.126-1.624-1.63-4.023-1.63-2.398 0-4.028 1.63-1.623 1.624-1.623 4.126 0 2.497 1.623 4.108Zm36.477-4.76v1.348q0 3.748-2.398 6.073-2.4 2.326-6.202 2.326-4.046 0-6.713-2.637-2.662-2.637-2.662-6.44 0-3.82 2.637-6.469Q42.774 0 46.674 0q2.454 0 4.474 1.117 2.026 1.11 3.155 2.96L51.35 5.78q-.622-1.074-1.886-1.752-1.263-.677-2.813-.677-2.497 0-4.114 1.642-1.611 1.635-1.611 4.132 0 2.478 1.635 4.09 1.642 1.61 4.34 1.61 2.002 0 3.314-.885 1.312-.885 1.788-2.435h-5.304V8.453h8.777Zm20.928 7.11q-2.65 2.637-6.452 2.637t-6.439-2.637q-2.637-2.637-2.637-6.458 0-3.826 2.637-6.463Q66.15 0 69.952 0q3.802 0 6.45 2.643 2.65 2.637 2.65 6.463 0 3.821-2.65 6.458Zm-10.48-2.35q1.63 1.611 4.028 1.611 2.4 0 4.023-1.61 1.63-1.612 1.63-4.109 0-2.502-1.63-4.126-1.624-1.63-4.023-1.63-2.398 0-4.028 1.63-1.624 1.624-1.624 4.126 0 2.497 1.624 4.108Zm24.652 4.987q-2.6 0-4.376-1.16-1.77-1.166-2.496-3.162l2.948-1.727q1.025 2.673 4.028 2.673 1.447 0 2.118-.524.678-.525.678-1.325 0-.922-.825-1.434-.823-.513-2.948-1.117-1.177-.348-1.99-.696-.811-.354-1.623-.94-.811-.586-1.239-1.483-.42-.903-.42-2.106 0-2.374 1.684-3.784Q87.804 0 90.179 0q2.124 0 3.735 1.038 1.611 1.037 2.515 2.893l-2.9 1.672q-1.055-2.252-3.35-2.252-1.075 0-1.691.488-.61.488-.61 1.264 0 .824.683 1.336.69.513 2.643 1.111.8.25 1.209.39.415.135 1.123.428.714.287 1.098.537.39.25.891.678.5.42.763.872.263.446.452 1.087.19.635.19 1.385 0 2.423-1.765 3.852-1.764 1.422-4.59 1.422Z" fill="#FFF" fill-rule="evenodd"/></svg>