<svg xmlns="http://www.w3.org/2000/svg" xmlns:xlink="http://www.w3.org/1999/xlink"><symbol id="arrow-top" viewBox="0 0 19.983 11.498"><g fill="none"><path d="M8.491 3.506v-2h3v2h-3Zm1.5.121-7.424 7.425a1.485 1.485 0 0 1-2.121 0 1.485 1.485 0 0 1 0-2.121L8.93.446a1.485 1.485 0 0 1 2.121 0l8.485 8.485a1.486 1.486 0 0 1 0 2.121 1.485 1.485 0 0 1-2.121 0L9.991 3.627Z" fill="#222021"/></g></symbol><symbol id="buy"><g fill="none"><path d="M6.188 18.086a.765.765 0 1 1-1.53-.002.765.765 0 0 1 1.53.002ZM17.44 18.086a.765.765 0 1 1-1.53-.002.765.765 0 0 1 1.53.002Z" stroke="#FFF" stroke-width="1.5" stroke-linejoin="round"/><path d="m.75.75 2.08.36.964 11.474a1.802 1.802 0 0 0 1.797 1.652h10.912c.896 0 1.656-.657 1.785-1.545l.949-6.558A1.34 1.34 0 0 0 17.91 4.6H3.165M12.126 8.296h2.773" stroke="#FFF" stroke-width="1.5" stroke-linejoin="round" stroke-linecap="round"/></g></symbol><symbol id="calling"><g fill="none"><path d="M3.029.5c.247.022.467.171.645.345.408.4 1.58 1.909 1.645 2.227.162.779-.767 1.228-.483 2.013.725 1.773 1.973 3.02 3.746 3.744.785.285 1.234-.643 2.013-.482.318.067 1.828 1.237 2.227 1.646.173.177.324.397.344.644.031.873-1.318 2.052-1.58 2.202-.621.445-1.43.436-2.417-.022-2.753-1.146-7.153-5.462-8.32-8.32-.446-.98-.476-1.795-.022-2.415.21-.35 1.373-1.62 2.202-1.581Z" stroke="#FFF" stroke-linejoin="round"/><path d="M8.544.667a5.314 5.314 0 0 1 4.694 4.688M8.544 3.029a2.95 2.95 0 0 1 2.332 2.332" stroke="#FFF" stroke-linejoin="round" stroke-linecap="round"/></g></symbol><symbol id="location"><g fill="none"><path d="M8.454.75a7.678 7.678 0 0 1 7.652 7.704v.087c-.052 2.757-1.59 5.305-3.478 7.296a20.183 20.183 0 0 1-3.591 2.957.93.93 0 0 1-1.217 0 19.818 19.818 0 0 1-5.053-4.73A9.827 9.827 0 0 1 .75 8.427v-.026A7.678 7.678 0 0 1 8.454.75Z" stroke="currentcolor" stroke-width="1.5" stroke-linejoin="round"/><circle cx="8.428" cy="8.55" r="2.461" stroke="currentcolor" stroke-width="1.5" stroke-linejoin="round"/></g></symbol><symbol id="search" viewBox="0 0 20.267 20.725"><g fill="none"><circle cx="9.739" cy="9.739" r="8.989" stroke="currentcolor" stroke-width="1.5" stroke-linejoin="round"/><path d="m15.99 16.457 3.524 3.515" stroke="currentcolor" stroke-width="1.5" stroke-linejoin="round" stroke-linecap="round"/></g></symbol></svg>